<svg viewBox="0 0 1584 396" xmlns="http://www.w3.org/2000/svg">
  <defs>
    <linearGradient id="bg" x1="0%" y1="0%" x2="100%" y2="100%">
      <stop offset="0%" stop-color="#0a1929"/>
      <stop offset="100%" stop-color="#1a4a7a"/>
    </linearGradient>
    <linearGradient id="lg" x1="0%" y1="0%" x2="100%" y2="100%">
      <stop offset="0%" stop-color="#0f2b4a"/>
      <stop offset="100%" stop-color="#1a4a7a"/>
    </linearGradient>
    <radialGradient id="glow1" cx="85%" cy="30%" r="40%">
      <stop offset="0%" stop-color="rgba(230,126,34,0.08)"/>
      <stop offset="100%" stop-color="transparent"/>
    </radialGradient>
    <radialGradient id="glow2" cx="15%" cy="80%" r="50%">
      <stop offset="0%" stop-color="rgba(26,74,122,0.12)"/>
      <stop offset="100%" stop-color="transparent"/>
    </radialGradient>
  </defs>
  <rect width="1584" height="396" fill="url(#bg)"/>
  <rect width="1584" height="396" fill="url(#glow1)"/>
  <rect width="1584" height="396" fill="url(#glow2)"/>
  <!-- Logo mark -->
  <g transform="translate(560,70) scale(1.8)">
    <polygon points="40,4 72,22 72,58 40,76 8,58 8,22" fill="#ffffff"/>
    <polygon points="40,12 64,26 64,54 40,68 16,54 16,26" fill="none" stroke="rgba(0,0,0,0.06)" stroke-width="1"/>
    <path d="M20,46 L40,36" stroke="#e67e22" stroke-width="3" stroke-linecap="round"/>
    <path d="M60,46 L40,36" stroke="#e67e22" stroke-width="3" stroke-linecap="round"/>
    <path d="M40,64 L40,36" stroke="#e67e22" stroke-width="3" stroke-linecap="round"/>
    <circle cx="40" cy="36" r="6" fill="#e67e22"/>
    <circle cx="40" cy="36" r="3" fill="#0f2b4a"/>
    <circle cx="20" cy="46" r="3.5" fill="rgba(15,43,74,0.5)"/>
    <circle cx="60" cy="46" r="3.5" fill="rgba(15,43,74,0.5)"/>
    <circle cx="40" cy="64" r="3.5" fill="rgba(15,43,74,0.5)"/>
    <path d="M40,28 L40,16 M36,20 L40,16 L44,20" stroke="#0f2b4a" stroke-width="2.5" fill="none" stroke-linecap="round" stroke-linejoin="round"/>
  </g>
  <!-- Text -->
  <text x="792" y="290" text-anchor="middle" fill="#ffffff" font-family="Inter,-apple-system,BlinkMacSystemFont,Segoe UI,sans-serif" font-size="36" font-weight="300" letter-spacing="3">CONSORZIO LOGISTICO</text>
  <text x="792" y="338" text-anchor="middle" fill="#ffffff" font-family="Inter,-apple-system,BlinkMacSystemFont,Segoe UI,sans-serif" font-size="44" font-weight="700" letter-spacing="3">LATINA SCALO</text>
  <!-- Accent line -->
  <rect x="742" y="350" width="100" height="3" rx="1.5" fill="#e67e22"/>
  <!-- Tagline -->
  <text x="792" y="380" text-anchor="middle" fill="#e67e22" font-family="Inter,-apple-system,BlinkMacSystemFont,Segoe UI,sans-serif" font-size="14" font-weight="600" letter-spacing="4">HUB LOGISTICO INTEGRATO · LAZIO</text>
</svg>
