<svg viewBox="0 0 200 140" xmlns="http://www.w3.org/2000/svg">
  <defs>
    <linearGradient id="logoGrad" x1="0%" y1="0%" x2="100%" y2="100%">
      <stop offset="0%" stop-color="#0f2b4a"/>
      <stop offset="100%" stop-color="#1a4a7a"/>
    </linearGradient>
  </defs>
  <g transform="translate(70,0)">
    <polygon points="30,3 54,16.5 54,43.5 30,57 6,43.5 6,16.5" fill="url(#logoGrad)"/>
    <polygon points="30,9 48,19.5 48,40.5 30,51 12,40.5 12,19.5" fill="none" stroke="rgba(255,255,255,0.12)" stroke-width="0.8"/>
    <path d="M15,34.5 L30,27" stroke="#e67e22" stroke-width="2.2" stroke-linecap="round"/>
    <path d="M45,34.5 L30,27" stroke="#e67e22" stroke-width="2.2" stroke-linecap="round"/>
    <path d="M30,48 L30,27" stroke="#e67e22" stroke-width="2.2" stroke-linecap="round"/>
    <circle cx="30" cy="27" r="4.5" fill="#e67e22"/>
    <circle cx="30" cy="27" r="2.2" fill="#fff"/>
    <circle cx="15" cy="34.5" r="2.6" fill="rgba(255,255,255,0.7)"/>
    <circle cx="45" cy="34.5" r="2.6" fill="rgba(255,255,255,0.7)"/>
    <circle cx="30" cy="48" r="2.6" fill="rgba(255,255,255,0.7)"/>
    <path d="M30,21 L30,12 M27.5,15 L30,12 L32.5,15" stroke="#fff" stroke-width="1.8" fill="none" stroke-linecap="round" stroke-linejoin="round"/>
  </g>
  <text x="100" y="85" text-anchor="middle" fill="#0f2b4a" font-family="Inter,-apple-system,BlinkMacSystemFont,Segoe UI,sans-serif" font-size="11" font-weight="300" letter-spacing="1">CONSORZIO LOGISTICO</text>
  <text x="100" y="105" text-anchor="middle" fill="#0f2b4a" font-family="Inter,-apple-system,BlinkMacSystemFont,Segoe UI,sans-serif" font-size="14" font-weight="700" letter-spacing="1">LATINA SCALO</text>
</svg>
